<svg xmlns="http://www.w3.org/2000/svg" viewBox="0 0 98 96" role="img" aria-labelledby="github-title">
  <title id="github-title">GitHub</title>
  <path fill="#7a7d72" fill-rule="evenodd" clip-rule="evenodd" d="M49 0C21.94 0 0 21.5 0 48c0 21.22 14.03 39.2 33.48 45.55 2.45.44 3.35-1.04 3.35-2.31 0-1.14-.04-4.16-.06-8.17-13.62 2.9-16.49-6.43-16.49-6.43-2.23-5.55-5.44-7.03-5.44-7.03-4.44-2.98.34-2.92.34-2.92 4.91.34 7.5 4.95 7.5 4.95 4.36 7.33 11.45 5.21 14.24 3.99.44-3.1 1.71-5.21 3.11-6.41-10.87-1.21-22.3-5.32-22.3-23.7 0-5.24 1.91-9.52 5.04-12.87-.5-1.22-2.18-6.11.48-12.7 0 0 4.11-1.29 13.46 4.92A47.66 47.66 0 0 1 49 23.05c4.16.02 8.34.55 12.25 1.62 9.34-6.21 13.44-4.92 13.44-4.92 2.67 6.59.99 11.48.49 12.7 3.14 3.35 5.03 7.63 5.03 12.87 0 18.42-11.45 22.47-22.36 23.66 1.76 1.49 3.32 4.42 3.32 8.91 0 6.43-.06 11.62-.06 13.2 0 1.28.88 2.78 3.37 2.31C83.98 87.17 98 69.2 98 48 98 21.5 76.06 0 49 0Z"/>
</svg>
